# xmcd CD database file
#
# Track frame offsets:
#	150
#	37740
#	62440
#	82242
#	110037
#	135422
#	169205
#	206410
#	245025
#	274345
#
# Disc length: 4222 seconds
#
# Revision: 0
# Processed by: cddbd v1.5.1PL2 Copyright (c) Steve Scherf et al.
# Submitted via: CDex 1.51
#
DISCID=8d107c0a
DTITLE=Steve Hulse - Jazzed for the Beatles
DYEAR=2001
DGENRE=Jazz
TTITLE0=Yesterday
TTITLE1=Here, There and Everywhere
TTITLE2=Norwegian Wood
TTITLE3=And I Love Her
TTITLE4=Eleanor Rigby
TTITLE5=Something
TTITLE6=Here Comes the Sun
TTITLE7=Michelle
TTITLE8=Fool on the Hill
TTITLE9=Blackbird
EXTD=YEAR: 2001
EXTT0=
EXTT1=
EXTT2=
EXTT3=
EXTT4=
EXTT5=
EXTT6=
EXTT7=
EXTT8=
EXTT9=
PLAYORDER=
